<svg width="16" height="17" viewBox="0 0 16 17" fill="none" xmlns="http://www.w3.org/2000/svg">
<g clip-path="url(#clip0_245_1335)">
<path d="M7.33333 7.83333H0V2.5C0 1.96957 0.210714 1.46086 0.585786 1.08579C0.960859 0.710714 1.46957 0.5 2 0.5L7.33333 0.5V7.83333ZM1.33333 6.5H6V1.83333H2C1.82319 1.83333 1.65362 1.90357 1.5286 2.0286C1.40357 2.15362 1.33333 2.32319 1.33333 2.5V6.5Z" fill="white"/>
<path d="M15.9998 7.83333H8.6665V0.5H13.9998C14.5303 0.5 15.039 0.710714 15.414 1.08579C15.7891 1.46086 15.9998 1.96957 15.9998 2.5V7.83333ZM9.99984 6.5H14.6665V2.5C14.6665 2.32319 14.5963 2.15362 14.4712 2.0286C14.3462 1.90357 14.1766 1.83333 13.9998 1.83333H9.99984V6.5Z" fill="white"/>
<path d="M7.33333 16.5001H2C1.46957 16.5001 0.960859 16.2894 0.585786 15.9143C0.210714 15.5392 0 15.0305 0 14.5001L0 9.16675H7.33333V16.5001ZM1.33333 10.5001V14.5001C1.33333 14.6769 1.40357 14.8465 1.5286 14.9715C1.65362 15.0965 1.82319 15.1667 2 15.1667H6V10.5001H1.33333Z" fill="white"/>
<path d="M13.9998 16.5001H8.6665V9.16675H15.9998V14.5001C15.9998 15.0305 15.7891 15.5392 15.414 15.9143C15.039 16.2894 14.5303 16.5001 13.9998 16.5001ZM9.99984 15.1667H13.9998C14.1766 15.1667 14.3462 15.0965 14.4712 14.9715C14.5963 14.8465 14.6665 14.6769 14.6665 14.5001V10.5001H9.99984V15.1667Z" fill="white"/>
</g>
<defs>
<clipPath id="clip0_245_1335">
<rect width="16" height="16" fill="white" transform="translate(0 0.5)"/>
</clipPath>
</defs>
</svg>
