<svg width="16" height="17" viewBox="0 0 16 17" fill="none" xmlns="http://www.w3.org/2000/svg">
<g clip-path="url(#clip0_245_1387)">
<path d="M13.3335 0.5H3.3335C2.80306 0.5 2.29436 0.710714 1.91928 1.08579C1.54421 1.46086 1.3335 1.96957 1.3335 2.5V14.5C1.3335 15.0304 1.54421 15.5391 1.91928 15.9142C2.29436 16.2893 2.80306 16.5 3.3335 16.5H14.6668V1.83333C14.6668 1.47971 14.5264 1.14057 14.2763 0.890524C14.0263 0.640476 13.6871 0.5 13.3335 0.5V0.5ZM13.3335 12.5H5.3335V1.83333H13.3335V12.5ZM3.3335 1.83333H4.00016V12.5H3.34483C3.11332 12.502 2.88391 12.5442 2.66683 12.6247V2.5C2.66683 2.32319 2.73707 2.15362 2.86209 2.0286C2.98712 1.90357 3.15669 1.83333 3.3335 1.83333ZM3.3335 15.1667C3.15761 15.1667 2.98884 15.0972 2.86397 14.9733C2.7391 14.8494 2.66824 14.6812 2.66683 14.5053H2.67683C2.67613 14.4173 2.69285 14.3301 2.72604 14.2486C2.75923 14.1671 2.80822 14.0929 2.8702 14.0305C2.93217 13.968 3.0059 13.9184 3.08714 13.8846C3.16837 13.8507 3.2555 13.8333 3.3435 13.8333H13.3335V15.1667H3.3335Z" fill="white"/>
</g>
<defs>
<clipPath id="clip0_245_1387">
<rect width="16" height="16" fill="white" transform="translate(0 0.5)"/>
</clipPath>
</defs>
</svg>
