<svg width="16" height="17" viewBox="0 0 16 17" fill="none" xmlns="http://www.w3.org/2000/svg">
<g clip-path="url(#clip0_245_1371)">
<path d="M15.2813 1.63342C15.0568 1.44524 14.7935 1.30894 14.5103 1.23427C14.227 1.15959 13.9308 1.14837 13.6427 1.20142L9.52267 1.95008C8.9331 2.05639 8.39663 2.35845 8 2.80742C7.60367 2.35771 7.06716 2.05492 6.47733 1.94808L2.35733 1.19942C2.06918 1.14709 1.77305 1.15869 1.48987 1.23339C1.20669 1.30809 0.943372 1.44407 0.718521 1.63172C0.49367 1.81937 0.312775 2.05411 0.188618 2.31936C0.0644604 2.58461 7.11635e-05 2.87388 0 3.16675L0 14.3894L8 15.8448L16 14.3894V3.16675C16 2.8741 15.9357 2.58502 15.8115 2.32003C15.6873 2.05504 15.5063 1.82063 15.2813 1.63342ZM7.33333 14.3668L1.33333 13.2774V3.16675C1.33342 3.06914 1.35493 2.97275 1.39636 2.88437C1.43779 2.79599 1.49811 2.71778 1.57308 2.65528C1.64805 2.59277 1.73583 2.54749 1.83022 2.52263C1.92461 2.49777 2.0233 2.49395 2.11933 2.51142L6.23867 3.26008C6.54588 3.31598 6.82374 3.47793 7.02378 3.71769C7.22383 3.95745 7.33338 4.25982 7.33333 4.57208V14.3668ZM14.6667 13.2761L8.66667 14.3668V4.57208C8.66662 4.25982 8.77617 3.95745 8.97622 3.71769C9.17626 3.47793 9.45412 3.31598 9.76133 3.26008L13.8807 2.51142C13.9767 2.49395 14.0754 2.49777 14.1698 2.52263C14.2642 2.54749 14.352 2.59277 14.4269 2.65528C14.5019 2.71778 14.5622 2.79599 14.6036 2.88437C14.6451 2.97275 14.6666 3.06914 14.6667 3.16675V13.2761Z" fill="white"/>
</g>
<defs>
<clipPath id="clip0_245_1371">
<rect width="16" height="16" fill="white" transform="translate(0 0.5)"/>
</clipPath>
</defs>
</svg>
