<svg width="16" height="17" viewBox="0 0 16 17" fill="none" xmlns="http://www.w3.org/2000/svg">
<g clip-path="url(#clip0_245_1308)">
<path d="M9.41333 1.58444C8.99237 1.31181 8.50154 1.16675 8 1.16675C7.49846 1.16675 7.00763 1.31181 6.58667 1.58444L0 5.8331L2.66667 7.5531V14.1091L2.862 14.3044C2.92467 14.3664 4.43133 15.8331 8 15.8331C11.5687 15.8331 13.0753 14.3664 13.138 14.3044L13.3333 14.1091V7.5531L14.6667 6.6931V13.8331H16V5.8331L9.41333 1.58444ZM12 13.5104C10.7952 14.2319 9.40217 14.5764 8 14.4998C6.5979 14.5766 5.20486 14.2323 4 13.5111V8.4131L6.58667 10.0798C7.00739 10.353 7.49832 10.4985 8 10.4985C8.50168 10.4985 8.99261 10.353 9.41333 10.0798L12 8.4131V13.5104ZM8.69067 8.9611C8.48513 9.0948 8.2452 9.16597 8 9.16597C7.7548 9.16597 7.51487 9.0948 7.30933 8.9611L2.46 5.8331L7.30933 2.7051C7.51487 2.5714 7.7548 2.50024 8 2.50024C8.2452 2.50024 8.48513 2.5714 8.69067 2.7051L13.54 5.8331L8.69067 8.9611Z" fill="white"/>
</g>
<defs>
<clipPath id="clip0_245_1308">
<rect width="16" height="16" fill="white" transform="translate(0 0.5)"/>
</clipPath>
</defs>
</svg>
