<svg width="16" height="17" viewBox="0 0 16 17" fill="none" xmlns="http://www.w3.org/2000/svg">
<path d="M7.99945 7.72195C7.99945 7.93359 8.09024 8.13657 8.25185 8.28622C8.41347 8.43587 8.63267 8.51995 8.86122 8.51995C9.08978 8.51995 9.30898 8.43587 9.47059 8.28622C9.63221 8.13657 9.723 7.93359 9.723 7.72195C9.723 7.5103 9.63221 7.30733 9.47059 7.15767C9.30898 7.00802 9.08978 6.92394 8.86122 6.92394C8.63267 6.92394 8.41347 7.00802 8.25185 7.15767C8.09024 7.30733 7.99945 7.5103 7.99945 7.72195ZM15.9063 14.7623L11.9701 5.32793V1.85661H13.5148V0.5H2.48407V1.85661H4.02881V5.32793L0.0926411 14.7623C0.0323167 14.91 0 15.0656 0 15.2232C0 15.9274 0.618325 16.5 1.37884 16.5H14.62C14.7903 16.5 14.9583 16.4701 15.1177 16.4142C15.8287 16.1608 16.182 15.4207 15.9063 14.7623ZM5.49383 5.5813V1.89651H10.5051V5.5813L12.4635 10.2756C12.0175 10.1698 11.5564 10.116 11.0868 10.116C9.76824 10.116 8.51867 10.5449 7.52547 11.313C6.79244 11.88 5.86728 12.1901 4.91213 12.1888C4.20763 12.1888 3.53113 12.0232 2.93435 11.716L5.49383 5.5813ZM1.5038 15.1434L2.4022 12.9928C3.17134 13.3539 4.02665 13.5474 4.91428 13.5474C6.2328 13.5474 7.48238 13.1185 8.47558 12.3504C9.20593 11.7878 10.1194 11.4746 11.0889 11.4746C11.843 11.4746 12.5626 11.6641 13.1917 12.0152L14.4951 15.1434H1.5038Z" fill="white"/>
</svg>
