<svg width="24" height="24" viewBox="0 0 24 24" fill="none" xmlns="http://www.w3.org/2000/svg">
<g clip-path="url(#clip0_245_1432)">
<path d="M7 12H17V14H7V12ZM7 18H14V16H7V18ZM22 7.586V24H2V3C2 2.20435 2.31607 1.44129 2.87868 0.87868C3.44129 0.31607 4.20435 0 5 0L14.414 0L22 7.586ZM15 7H18.586L15 3.414V7ZM20 22V9H13V2H5C4.73478 2 4.48043 2.10536 4.29289 2.29289C4.10536 2.48043 4 2.73478 4 3V22H20Z" fill="white"/>
</g>
<defs>
<clipPath id="clip0_245_1432">
<rect width="24" height="24" fill="white"/>
</clipPath>
</defs>
</svg>
