<svg width="16" height="17" viewBox="0 0 16 17" fill="none" xmlns="http://www.w3.org/2000/svg">
<g clip-path="url(#clip0_1079_20808)">
<path d="M10.4677 5.2559L9.23439 5.96657C8.89463 5.62425 8.46839 5.38049 8.00105 5.26123V3.83323H6.66772V5.26123C6.20039 5.38049 5.77415 5.62425 5.43439 5.96657L4.20106 5.2559L3.53439 6.41057L4.77505 7.1259C4.70733 7.35571 4.67122 7.59368 4.66772 7.83323C4.67122 8.07279 4.70733 8.31076 4.77505 8.54057L3.53439 9.2559L4.20106 10.4106L5.43439 9.6999C5.77415 10.0422 6.20039 10.286 6.66772 10.4052V11.8332H8.00105V10.4052C8.46839 10.286 8.89463 10.0422 9.23439 9.6999L10.4677 10.4106L11.1344 9.2559L9.89639 8.54057C9.96321 8.31063 9.99842 8.07267 10.0011 7.83323C9.99755 7.59368 9.96144 7.35571 9.89372 7.1259L11.1344 6.41057L10.4677 5.2559ZM7.33439 9.16657C7.07068 9.16657 6.81289 9.08837 6.59363 8.94186C6.37436 8.79535 6.20347 8.58711 6.10255 8.34348C6.00163 8.09984 5.97523 7.83176 6.02667 7.57311C6.07812 7.31447 6.20511 7.0769 6.39158 6.89043C6.57805 6.70396 6.81563 6.57697 7.07427 6.52552C7.33291 6.47407 7.601 6.50048 7.84463 6.60139C8.08827 6.70231 8.29651 6.87321 8.44301 7.09247C8.58952 7.31174 8.66772 7.56953 8.66772 7.83323C8.66772 8.18686 8.52725 8.52599 8.2772 8.77604C8.02715 9.02609 7.68801 9.16657 7.33439 9.16657ZM15.5157 7.92123C14.9186 6.3455 14.142 4.84381 13.2011 3.4459C12.4195 2.38684 11.3649 1.55994 10.15 1.05352C8.9351 0.547101 7.60545 0.380174 6.30305 0.570567C5.01088 0.754282 3.79115 1.27953 2.76977 2.09209C1.74839 2.90465 0.962379 3.97508 0.492872 5.19288C0.0233645 6.41067 -0.112624 7.73171 0.0989429 9.01962C0.31051 10.3075 0.861967 11.5156 1.69639 12.5192C1.8931 12.7555 2.00089 13.0531 2.00105 13.3606V16.4999H10.6677V14.4999H12.1657C12.6503 14.4988 13.1182 14.3222 13.4826 14.0028C13.8471 13.6834 14.0836 13.2428 14.1484 12.7626L14.4477 10.4999H16.0011V9.02523C16.0011 9.02523 15.6584 8.2479 15.5157 7.92123ZM13.2791 9.16657L12.8271 12.5872C12.8059 12.7476 12.7271 12.8948 12.6054 13.0014C12.4838 13.108 12.3275 13.1667 12.1657 13.1666H9.33439V15.1666H3.33439V13.3606C3.33404 12.7414 3.11706 12.1419 2.72105 11.6659C2.20486 11.05 1.81774 10.3366 1.5827 9.56814C1.34766 8.79966 1.26949 7.99179 1.35285 7.19251C1.4362 6.39323 1.67937 5.61886 2.06791 4.91541C2.45645 4.21197 2.98243 3.59381 3.6146 3.09766C4.24676 2.60151 4.97221 2.2375 5.74783 2.02726C6.52346 1.81702 7.33343 1.76484 8.12962 1.87382C8.92581 1.98279 9.69197 2.25071 10.3826 2.66164C11.0732 3.07257 11.6741 3.61813 12.1497 4.2659C13.0135 5.58089 13.7323 6.98552 14.2937 8.45523C14.3977 8.69323 14.5017 8.9319 14.6057 9.1679L13.2791 9.16657Z" fill="white"/>
</g>
<defs>
<clipPath id="clip0_1079_20808">
<rect width="16" height="16" fill="white" transform="translate(0 0.5)"/>
</clipPath>
</defs>
</svg>
