<svg width="32" height="32" viewBox="0 0 32 32" fill="none" xmlns="http://www.w3.org/2000/svg">
<rect width="32" height="32" rx="16" fill="#F26522"/>
<path d="M21.998 7H10.748C10.1513 7 9.57901 7.23705 9.15706 7.65901C8.7351 8.08097 8.49805 8.65326 8.49805 9.25V22.75C8.49805 23.3467 8.7351 23.919 9.15706 24.341C9.57901 24.7629 10.1513 25 10.748 25H23.498V8.5C23.498 8.10218 23.34 7.72064 23.0587 7.43934C22.7774 7.15804 22.3959 7 21.998 7V7ZM21.998 20.5H12.998V8.5H21.998V20.5ZM10.748 8.5H11.498V20.5H10.7608C10.5003 20.5022 10.2423 20.5497 9.99805 20.6403V9.25C9.99805 9.05109 10.0771 8.86032 10.2177 8.71967C10.3584 8.57902 10.5491 8.5 10.748 8.5ZM10.748 23.5C10.5502 23.5 10.3603 23.4218 10.2198 23.2825C10.0793 23.1431 9.99963 22.9539 9.99805 22.756H10.0093C10.0085 22.657 10.0273 22.5588 10.0647 22.4671C10.102 22.3755 10.1571 22.2921 10.2268 22.2218C10.2966 22.1515 10.3795 22.0957 10.4709 22.0577C10.5623 22.0196 10.6603 22 10.7593 22H21.998V23.5H10.748Z" fill="white"/>
</svg>
