<svg width="32" height="32" viewBox="0 0 32 32" fill="none" xmlns="http://www.w3.org/2000/svg">
<rect width="32" height="32" rx="16" fill="#F26522"/>
<g clip-path="url(#clip0_708_45687)">
<path d="M18.8881 12.7559L17.6548 13.4666C17.315 13.1242 16.8888 12.8805 16.4215 12.7612V11.3332H15.0881V12.7612C14.6208 12.8805 14.1946 13.1242 13.8548 13.4666L12.6215 12.7559L11.9548 13.9106L13.1955 14.6259C13.1277 14.8557 13.0916 15.0937 13.0881 15.3332C13.0916 15.5728 13.1277 15.8108 13.1955 16.0406L11.9548 16.7559L12.6215 17.9106L13.8548 17.1999C14.1946 17.5422 14.6208 17.786 15.0881 17.9052V19.3332H16.4215V17.9052C16.8888 17.786 17.315 17.5422 17.6548 17.1999L18.8881 17.9106L19.5548 16.7559L18.3168 16.0406C18.3836 15.8106 18.4188 15.5727 18.4215 15.3332C18.418 15.0937 18.3819 14.8557 18.3141 14.6259L19.5548 13.9106L18.8881 12.7559ZM15.7548 16.6666C15.4911 16.6666 15.2333 16.5884 15.014 16.4419C14.7948 16.2954 14.6239 16.0871 14.523 15.8435C14.422 15.5998 14.3956 15.3318 14.4471 15.0731C14.4985 14.8145 14.6255 14.5769 14.812 14.3904C14.9985 14.204 15.236 14.077 15.4947 14.0255C15.7533 13.9741 16.0214 14.0005 16.265 14.1014C16.5087 14.2023 16.7169 14.3732 16.8634 14.5925C17.0099 14.8117 17.0881 15.0695 17.0881 15.3332C17.0881 15.6869 16.9477 16.026 16.6976 16.276C16.4476 16.5261 16.1084 16.6666 15.7548 16.6666ZM23.9361 15.4212C23.3391 13.8455 22.5624 12.3438 21.6215 10.9459C20.8399 9.88684 19.7853 9.05994 18.5704 8.55352C17.3555 8.0471 16.0259 7.88017 14.7235 8.07057C13.4313 8.25428 12.2116 8.77953 11.1902 9.59209C10.1688 10.4047 9.38279 11.4751 8.91328 12.6929C8.44377 13.9107 8.30779 15.2317 8.51935 16.5196C8.73092 17.8075 9.28238 19.0156 10.1168 20.0192C10.3135 20.2555 10.4213 20.5531 10.4215 20.8606V23.9999H19.0881V21.9999H20.5861C21.0708 21.9988 21.5386 21.8222 21.9031 21.5028C22.2675 21.1834 22.504 20.7428 22.5688 20.2626L22.8681 17.9999H24.4215V16.5252C24.4215 16.5252 24.0788 15.7479 23.9361 15.4212ZM21.6995 16.6666L21.2475 20.0872C21.2263 20.2476 21.1475 20.3948 21.0258 20.5014C20.9042 20.608 20.7479 20.6667 20.5861 20.6666H17.7548V22.6666H11.7548V20.8606C11.7545 20.2414 11.5375 19.6419 11.1415 19.1659C10.6253 18.55 10.2382 17.8366 10.0031 17.0681C9.76807 16.2997 9.6899 15.4918 9.77326 14.6925C9.85661 13.8932 10.0998 13.1189 10.4883 12.4154C10.8769 11.712 11.4028 11.0938 12.035 10.5977C12.6672 10.1015 13.3926 9.7375 14.1682 9.52726C14.9439 9.31702 15.7538 9.26484 16.55 9.37382C17.3462 9.48279 18.1124 9.75071 18.803 10.1616C19.4936 10.5726 20.0945 11.1181 20.5701 11.7659C21.4339 13.0809 22.1527 14.4855 22.7141 15.9552C22.8181 16.1932 22.9221 16.4319 23.0261 16.6679L21.6995 16.6666Z" fill="white"/>
</g>
<defs>
<clipPath id="clip0_708_45687">
<rect width="16" height="16" fill="white" transform="translate(8.4209 8)"/>
</clipPath>
</defs>
</svg>
