<svg width="32" height="32" viewBox="0 0 32 32" fill="none" xmlns="http://www.w3.org/2000/svg">
<rect width="32" height="32" rx="16" fill="#F26522"/>
<g clip-path="url(#clip0_2091_62011)">
<path d="M16 7C13.7844 7.0067 11.6487 7.82841 10 9.3085V7H8.5V10.8573C8.5004 11.2265 8.64726 11.5805 8.90837 11.8416C9.16947 12.1027 9.52349 12.2496 9.89275 12.25H13.75V10.75H10.6593C11.8782 9.51518 13.4881 8.74195 15.2139 8.56242C16.9397 8.38289 18.6743 8.80822 20.1213 9.76571C21.5683 10.7232 22.6379 12.1535 23.1474 13.8121C23.6569 15.4707 23.5746 17.2548 22.9146 18.8595C22.2546 20.4642 21.0579 21.7899 19.5289 22.6101C17.9999 23.4304 16.2335 23.6942 14.5316 23.3566C12.8296 23.019 11.2977 22.1008 10.1976 20.759C9.0975 19.4173 8.49746 17.7351 8.5 16H7C7 17.78 7.52784 19.5201 8.51677 21.0001C9.50571 22.4802 10.9113 23.6337 12.5558 24.3149C14.2004 24.9961 16.01 25.1743 17.7558 24.8271C19.5016 24.4798 21.1053 23.6226 22.364 22.364C23.6226 21.1053 24.4798 19.5016 24.8271 17.7558C25.1743 16.01 24.9961 14.2004 24.3149 12.5558C23.6337 10.9113 22.4802 9.50571 21.0001 8.51677C19.5201 7.52784 17.78 7 16 7V7Z" fill="white"/>
<path d="M15.25 12.25V16.3105L17.7197 18.7802L18.7802 17.7198L16.75 15.6895V12.25H15.25Z" fill="white"/>
</g>
<defs>
<clipPath id="clip0_2091_62011">
<rect width="18" height="18" fill="white" transform="translate(7 7)"/>
</clipPath>
</defs>
</svg>
