<svg width="32" height="32" viewBox="0 0 32 32" fill="none" xmlns="http://www.w3.org/2000/svg">
<rect width="32" height="32" rx="16" fill="#F26522"/>
<g clip-path="url(#clip0_2336_62364)">
<path d="M22.75 10H18.25V9.25C18.25 8.65326 18.0129 8.08097 17.591 7.65901C17.169 7.23705 16.5967 7 16 7C15.4033 7 14.831 7.23705 14.409 7.65901C13.9871 8.08097 13.75 8.65326 13.75 9.25V10H9.25C8.65326 10 8.08097 10.2371 7.65901 10.659C7.23705 11.081 7 11.6533 7 12.25V25H25V12.25C25 11.6533 24.7629 11.081 24.341 10.659C23.919 10.2371 23.3467 10 22.75 10ZM15.25 9.25C15.25 9.05109 15.329 8.86032 15.4697 8.71967C15.6103 8.57902 15.8011 8.5 16 8.5C16.1989 8.5 16.3897 8.57902 16.5303 8.71967C16.671 8.86032 16.75 9.05109 16.75 9.25V11.5H15.25V9.25ZM23.5 23.5H8.5V12.25C8.5 12.0511 8.57902 11.8603 8.71967 11.7197C8.86032 11.579 9.05109 11.5 9.25 11.5H13.75V13H18.25V11.5H22.75C22.9489 11.5 23.1397 11.579 23.2803 11.7197C23.421 11.8603 23.5 12.0511 23.5 12.25V23.5ZM10 22H15.25V14.5H10V22ZM11.5 16H13.75V20.5H11.5V16ZM16.75 17.5H22V19H16.75V17.5ZM16.75 14.5H22V16H16.75V14.5ZM16.75 20.5H20.5V22H16.75V20.5Z" fill="white"/>
</g>
<defs>
<clipPath id="clip0_2336_62364">
<rect width="18" height="18" fill="white" transform="translate(7 7)"/>
</clipPath>
</defs>
</svg>
