<svg width="32" height="32" viewBox="0 0 32 32" fill="none" xmlns="http://www.w3.org/2000/svg">
<rect width="32" height="32" rx="16" fill="#F26522"/>
<g clip-path="url(#clip0_997_45062)">
<path d="M24.1915 8.27445C23.9389 8.06275 23.6427 7.90942 23.3241 7.82541C23.0054 7.7414 22.6721 7.72878 22.348 7.78845L17.713 8.6307C17.0497 8.75029 16.4462 9.09011 16 9.5952C15.5541 9.08928 14.9506 8.74865 14.287 8.62845L9.652 7.7862C9.32783 7.72734 8.99468 7.74038 8.6761 7.82442C8.35753 7.90846 8.06129 8.06144 7.80834 8.27254C7.55538 8.48365 7.35187 8.74774 7.21219 9.04614C7.07252 9.34454 7.00008 9.66998 7 9.99945V22.625L16 24.2622L25 22.625V9.99945C25 9.67022 24.9276 9.34501 24.7879 9.0469C24.6482 8.74878 24.4446 8.48507 24.1915 8.27445ZM15.25 22.5995L8.5 21.374V9.99945C8.50009 9.88965 8.5243 9.7812 8.5709 9.68177C8.61751 9.58234 8.68538 9.49436 8.76972 9.42404C8.85406 9.35373 8.95281 9.30278 9.059 9.27482C9.16518 9.24685 9.27622 9.24255 9.38425 9.2622L14.0185 10.1045C14.3641 10.1673 14.6767 10.3495 14.9018 10.6193C15.1268 10.889 15.2501 11.2292 15.25 11.5805V22.5995ZM23.5 21.3725L16.75 22.5995V11.5805C16.7499 11.2292 16.8732 10.889 17.0982 10.6193C17.3233 10.3495 17.6359 10.1673 17.9815 10.1045L22.6157 9.2622C22.7238 9.24255 22.8348 9.24685 22.941 9.27482C23.0472 9.30278 23.1459 9.35373 23.2303 9.42404C23.3146 9.49436 23.3825 9.58234 23.4291 9.68177C23.4757 9.7812 23.4999 9.88965 23.5 9.99945V21.3725Z" fill="white"/>
</g>
<defs>
<clipPath id="clip0_997_45062">
<rect width="18" height="18" fill="white" transform="translate(7 7)"/>
</clipPath>
</defs>
</svg>
