<svg width="32" height="32" viewBox="0 0 32 32" fill="none" xmlns="http://www.w3.org/2000/svg">
<rect width="32" height="32" rx="16" fill="#F26522"/>
<path d="M15.5265 15.368C15.5265 15.5532 15.6 15.7308 15.731 15.8618C15.8619 15.9927 16.0395 16.0663 16.2247 16.0663C16.4099 16.0663 16.5875 15.9927 16.7185 15.8618C16.8494 15.7308 16.923 15.5532 16.923 15.368C16.923 15.1828 16.8494 15.0052 16.7185 14.8743C16.5875 14.7433 16.4099 14.6698 16.2247 14.6698C16.0395 14.6698 15.8619 14.7433 15.731 14.8743C15.6 15.0052 15.5265 15.1828 15.5265 15.368ZM21.933 21.5284L18.7437 13.2733V10.2359H19.9953V9.04883H11.0576V10.2359H12.3093V13.2733L9.11998 21.5284C9.07111 21.6576 9.04492 21.7937 9.04492 21.9316C9.04492 22.5478 9.54592 23.0488 10.1621 23.0488H20.8908C21.0287 23.0488 21.1649 23.0226 21.2941 22.9738C21.8701 22.7521 22.1564 22.1044 21.933 21.5284ZM13.4963 13.495V10.2708H17.5566V13.495L19.1434 17.6024C18.7821 17.5099 18.4085 17.4628 18.028 17.4628C16.9596 17.4628 15.9472 17.8381 15.1424 18.5102C14.5485 19.0063 13.7989 19.2776 13.025 19.2765C12.4541 19.2765 11.906 19.1316 11.4225 18.8628L13.4963 13.495ZM10.2634 21.8618L10.9913 19.98C11.6145 20.296 12.3075 20.4653 13.0267 20.4653C14.095 20.4653 15.1075 20.09 15.9123 19.4179C16.504 18.9256 17.2442 18.6516 18.0297 18.6516C18.6407 18.6516 19.2237 18.8174 19.7335 19.1246L20.7896 21.8618H10.2634Z" fill="white"/>
</svg>
