<svg width="32" height="32" viewBox="0 0 32 32" fill="none" xmlns="http://www.w3.org/2000/svg">
<rect width="32" height="32" rx="16" fill="#F26522"/>
<g clip-path="url(#clip0_332_29795)">
<path d="M22.75 25.0005H21.25V21.2182C21.2494 20.6302 21.0156 20.0665 20.5998 19.6507C20.184 19.2349 19.6202 19.0011 19.0322 19.0005H12.9677C12.3797 19.0011 11.816 19.2349 11.4002 19.6507C10.9844 20.0665 10.7506 20.6302 10.75 21.2182V25.0005H9.25V21.2182C9.25119 20.2326 9.64326 19.2877 10.3402 18.5907C11.0372 17.8938 11.9821 17.5017 12.9677 17.5005H19.0322C20.0179 17.5017 20.9628 17.8938 21.6598 18.5907C22.3567 19.2877 22.7488 20.2326 22.75 21.2182V25.0005Z" fill="white"/>
<path d="M16 16C15.11 16 14.24 15.7361 13.4999 15.2416C12.7599 14.7471 12.1831 14.0443 11.8425 13.2221C11.5019 12.3998 11.4128 11.495 11.5865 10.6221C11.7601 9.74918 12.1887 8.94736 12.818 8.31802C13.4474 7.68869 14.2492 7.2601 15.1221 7.08647C15.995 6.91283 16.8998 7.00195 17.7221 7.34254C18.5443 7.68314 19.2471 8.25991 19.7416 8.99994C20.2361 9.73996 20.5 10.61 20.5 11.5C20.4988 12.6931 20.0243 13.837 19.1807 14.6807C18.337 15.5243 17.1931 15.9988 16 16ZM16 8.5C15.4067 8.5 14.8266 8.67595 14.3333 9.00559C13.8399 9.33524 13.4554 9.80377 13.2284 10.352C13.0013 10.9001 12.9419 11.5033 13.0576 12.0853C13.1734 12.6672 13.4591 13.2018 13.8787 13.6213C14.2982 14.0409 14.8328 14.3266 15.4147 14.4424C15.9967 14.5581 16.5999 14.4987 17.1481 14.2716C17.6962 14.0446 18.1648 13.6601 18.4944 13.1667C18.8241 12.6734 19 12.0933 19 11.5C19 10.7044 18.6839 9.94129 18.1213 9.37868C17.5587 8.81607 16.7957 8.5 16 8.5Z" fill="white"/>
</g>
<defs>
<clipPath id="clip0_332_29795">
<rect width="18" height="18" fill="white" transform="translate(7 7)"/>
</clipPath>
</defs>
</svg>
